<svg xmlns="http://www.w3.org/2000/svg" xmlns:xlink="http://www.w3.org/1999/xlink" viewBox="0 0 1205 1250"><defs><linearGradient id="Безымянный_градиент" x1="602.5" y1="1858" x2="602.5" y2="1070.36" gradientTransform="matrix(1 0 0 -1 0 1858)" gradientUnits="userSpaceOnUse"><stop offset="0" stop-color="#edfee6"/><stop offset="1" stop-color="#dcfbf2"/></linearGradient><linearGradient id="Безымянный_градиент_2" x1="602.5" y1="1858" x2="602.5" y2="608" gradientTransform="matrix(1 0 0 -1 0 1858)" gradientUnits="userSpaceOnUse"><stop offset="0" stop-color="#fff"/><stop offset="1" stop-color="#fff" stop-opacity="0"/></linearGradient></defs><g id="Слой_2" data-name="Слой 2"><g id="Слой_1-2" data-name="Слой 1" fill-rule="evenodd"><path d="M596.59 2.59C734.63-10.18 878.47 24.23 987.83 105c107.42 79.3 159.89 204.83 194 329.66 32.34 118.44 31.42 240.94-6.24 358-38.23 118.82-106.14 226.94-207.42 305.93-106 82.7-237.95 176-371.55 145.6S438.24 1041 335.58 954.52C249 881.62 106.26 878.26 49.06 782.91-12.31 680.6-11.67 551.23 26.52 439.27s134-192.62 230.72-266.72C359.21 94.44 466 14.67 596.59 2.59z" fill="url(#Безымянный_градиент)"/><path d="M596.59 2.59C734.63-10.18 878.47 24.23 987.83 105c107.42 79.3 159.89 204.83 194 329.66 32.34 118.44 31.42 240.94-6.24 358-38.23 118.82-106.14 226.94-207.42 305.93-106 82.7-237.95 176-371.55 145.6S438.24 1041 335.58 954.52C249 881.62 106.26 878.26 49.06 782.91-12.31 680.6-11.67 551.23 26.52 439.27s134-192.62 230.72-266.72C359.21 94.44 466 14.67 596.59 2.59z" fill="url(#Безымянный_градиент_2)"/></g></g></svg>