<svg version="1.1" id="Слой_1" xmlns="http://www.w3.org/2000/svg" xmlns:xlink="http://www.w3.org/1999/xlink" x="0" y="0" viewBox="0 0 17.4 17.4" xml:space="preserve"><path d="M17.4 5.1c0-.9-.2-1.6-.4-2.1-.2-.6-.6-1.1-1-1.5-.4-.4-1-.8-1.5-1-.6-.2-1.2-.4-2.1-.4-1-.1-1.3-.1-3.7-.1C6.3 0 6 0 5.1.1 4.2.1 3.6.2 3 .5c-.6.2-1.1.5-1.5 1-.5.4-.8.9-1 1.5-.3.5-.4 1.2-.4 2.1C0 6 0 6.3 0 8.7c0 2.4 0 2.7.1 3.6 0 .9.2 1.6.4 2.1.2.6.6 1.1 1 1.5.4.4 1 .8 1.5 1 .6.2 1.2.4 2.1.4.9 0 1.2.1 3.6.1 2.4 0 2.7 0 3.6-.1.9 0 1.6-.2 2.1-.4 1.2-.5 2.1-1.4 2.5-2.5.2-.6.4-1.2.4-2.1 0-.9.1-1.2.1-3.6V5.1zm-1.6 7.1c0 .8-.2 1.3-.3 1.6-.3.8-.9 1.4-1.7 1.6-.3.1-.8.3-1.6.3-.9 0-1.2.1-3.5.1s-2.6 0-3.5-.1c-.8 0-1.3-.2-1.6-.3-.4-.1-.7-.4-1-.6-.3-.3-.5-.6-.7-1-.1-.3-.3-.8-.3-1.6 0-.9-.1-1.2-.1-3.5s0-2.6.1-3.5c0-.8.2-1.3.3-1.6.1-.4.4-.7.7-1 .3-.3.6-.5 1-.6.3-.1.8-.3 1.6-.3.9 0 1.2-.1 3.5-.1s2.6 0 3.5.1c.8 0 1.3.2 1.6.3.4.1.7.4 1 .6.3.3.5.6.7 1 .1.3.3.8.3 1.6 0 .9.1 1.2.1 3.5-.1 2.3-.1 2.6-.1 3.5zm-7.1-8c-2.5 0-4.5 2-4.5 4.5s2 4.5 4.5 4.5 4.5-2 4.5-4.5-2-4.5-4.5-4.5zm0 7.4c-1.6 0-2.9-1.3-2.9-2.9 0-1.6 1.3-2.9 2.9-2.9 1.6 0 2.9 1.3 2.9 2.9 0 1.6-1.3 2.9-2.9 2.9zm4.8-6.4c.6 0 1-.5 1-1 0-.6-.5-1-1-1-.6 0-1 .5-1 1-.1.6.4 1 1 1z" fill-rule="evenodd" clip-rule="evenodd" fill="#a6a8a8"/></svg>