<?xml version="1.0" encoding="utf-8"?><svg version="1.1" id="fСлой_1" xmlns="http://www.w3.org/2000/svg" x="0" y="0" viewBox="0 0 22.2 12.6" xml:space="preserve" width="22.2" height="12.6"><style>.fst0{fill-rule:evenodd;clip-rule:evenodd;fill:#a6a8a8}</style><path class="fst0" d="M19.7 8.7c1.8 1.6 2.2 2.4 2.2 2.5.7 1.2-.8 1.3-.8 1.3h-3s-.6.1-1.5-.5c-1.1-.8-2.6-2.7-3.5-2.5-.8.3-.6 2.3-.6 2.3s0 .3-.2.5-.6.1-.6.1H11s-3.2 0-5.8-2.7C2.4 7 .1 1.6.1 1.6s-.1-.3 0-.5C.3.9.8.9.8.9H4s.3 0 .5.2c.2.1.3.4.3.4s.4 1 1.1 2.2C7.2 6 7.8 6.5 8.3 6.2c.7-.4.5-3.2.5-3.2s0-1-.3-1.5C8 1 7.5.9 7.3.9c-.2 0 .1-.4.5-.6.6-.3 1.6-.3 2.8-.3h1.3c1.1.3.7 1.3.7 3.7 0 .8-.1 1.9.4 2.2.2.2 1.1.2 2.6-2.3.7-1.2 1.3-2.3 1.3-2.3s.1-.2.3-.3c.2-.1.4-.1.4-.1h3.3s1-.1 1.2.3c.2.5-.4 1.3-1.8 3.1-2.2 3-2.4 2.7-.6 4.4z"/></svg>