<?xml version="1.0" encoding="utf-8"?><svg viewBox="0 0 1205 1250" xmlns="http://www.w3.org/2000/svg" xmlns:xlink="http://www.w3.org/1999/xlink"><style>:root>svg{display:none}:root>svg:target{display:block}</style><svg viewBox="0 0 1205 1250" id="bg-item" xmlns="http://www.w3.org/2000/svg"><defs><linearGradient id="aБезымянный_градиент" x1="602.5" y1="1858" x2="602.5" y2="1070.36" gradientTransform="matrix(1 0 0 -1 0 1858)" gradientUnits="userSpaceOnUse"><stop offset="0" stop-color="#edfee6"/><stop offset="1" stop-color="#dcfbf2"/></linearGradient><linearGradient id="aБезымянный_градиент_2" x1="602.5" y1="1858" x2="602.5" y2="608" gradientTransform="matrix(1 0 0 -1 0 1858)" gradientUnits="userSpaceOnUse"><stop offset="0" stop-color="#fff"/><stop offset="1" stop-color="#fff" stop-opacity="0"/></linearGradient><style>.acls-1,.acls-2{fill-rule:evenodd}.acls-1{fill:url(#aБезымянный_градиент)}.acls-2{fill:url(#aБезымянный_градиент_2)}</style></defs><g id="aСлой_2" data-name="Слой 2"><g id="aСлой_1-2" data-name="Слой 1"><path class="acls-1" d="M596.59 2.59C734.63-10.18 878.47 24.23 987.83 105c107.42 79.3 159.89 204.83 194 329.66 32.34 118.44 31.42 240.94-6.24 358-38.23 118.82-106.14 226.94-207.42 305.93-106 82.7-237.95 176-371.55 145.6S438.24 1041 335.58 954.52C249 881.62 106.26 878.26 49.06 782.91-12.31 680.6-11.67 551.23 26.52 439.27s134-192.62 230.72-266.72C359.21 94.44 466 14.67 596.59 2.59z"/><path class="acls-2" d="M596.59 2.59C734.63-10.18 878.47 24.23 987.83 105c107.42 79.3 159.89 204.83 194 329.66 32.34 118.44 31.42 240.94-6.24 358-38.23 118.82-106.14 226.94-207.42 305.93-106 82.7-237.95 176-371.55 145.6S438.24 1041 335.58 954.52C249 881.62 106.26 878.26 49.06 782.91-12.31 680.6-11.67 551.23 26.52 439.27s134-192.62 230.72-266.72C359.21 94.44 466 14.67 596.59 2.59z"/></g></g></svg><svg fill="none" viewBox="0 0 19 16" id="check" xmlns="http://www.w3.org/2000/svg"><g filter="url(#bfilter0_d)"><path fill-rule="evenodd" clip-rule="evenodd" d="M14.707 4.293a1 1 0 010 1.414l-6 6a1 1 0 01-1.414 0l-3-3a1 1 0 011.414-1.414L8 9.586l5.293-5.293a1 1 0 011.414 0z" fill="#fff"/></g><defs><filter id="bfilter0_d" x="0" y="0" width="19" height="16" filterUnits="userSpaceOnUse" color-interpolation-filters="sRGB"><feFlood flood-opacity="0" result="BackgroundImageFix"/><feColorMatrix in="SourceAlpha" values="0 0 0 0 0 0 0 0 0 0 0 0 0 0 0 0 0 0 127 0"/><feOffset/><feGaussianBlur stdDeviation="2"/><feColorMatrix values="0 0 0 0 0 0 0 0 0 0 0 0 0 0 0 0 0 0 0.2 0"/><feBlend in2="BackgroundImageFix" result="effect1_dropShadow"/><feBlend in="SourceGraphic" in2="effect1_dropShadow" result="shape"/></filter></defs></svg><svg version="1.1" id="facebook" x="0" y="0" viewBox="0 0 8 17.4" xml:space="preserve" xmlns="http://www.w3.org/2000/svg"><style>.cst0{fill-rule:evenodd;clip-rule:evenodd;fill:#a6a8a8}</style><path class="cst0" d="M7.5 8.3H5.3v9H2v-9H0V5.6h2V3.9C2 1.4 3 0 5.7 0H8v2.8H6.5c-1.1 0-1.2.4-1.2 1.2v1.6H8l-.5 2.7z"/></svg><svg version="1.1" id="instagram" x="0" y="0" viewBox="0 0 17.4 17.4" xml:space="preserve" xmlns="http://www.w3.org/2000/svg"><style>.dst0{fill-rule:evenodd;clip-rule:evenodd;fill:#a6a8a8}</style><path class="dst0" d="M17.4 5.1c0-.9-.2-1.6-.4-2.1-.2-.6-.6-1.1-1-1.5-.4-.4-1-.8-1.5-1-.6-.2-1.2-.4-2.1-.4-1-.1-1.3-.1-3.7-.1C6.3 0 6 0 5.1.1 4.2.1 3.6.2 3 .5c-.6.2-1.1.5-1.5 1-.5.4-.8.9-1 1.5-.3.5-.4 1.2-.4 2.1C0 6 0 6.3 0 8.7c0 2.4 0 2.7.1 3.6 0 .9.2 1.6.4 2.1.2.6.6 1.1 1 1.5.4.4 1 .8 1.5 1 .6.2 1.2.4 2.1.4.9 0 1.2.1 3.6.1 2.4 0 2.7 0 3.6-.1.9 0 1.6-.2 2.1-.4 1.2-.5 2.1-1.4 2.5-2.5.2-.6.4-1.2.4-2.1 0-.9.1-1.2.1-3.6V5.1zm-1.6 7.1c0 .8-.2 1.3-.3 1.6-.3.8-.9 1.4-1.7 1.6-.3.1-.8.3-1.6.3-.9 0-1.2.1-3.5.1s-2.6 0-3.5-.1c-.8 0-1.3-.2-1.6-.3-.4-.1-.7-.4-1-.6-.3-.3-.5-.6-.7-1-.1-.3-.3-.8-.3-1.6 0-.9-.1-1.2-.1-3.5s0-2.6.1-3.5c0-.8.2-1.3.3-1.6.1-.4.4-.7.7-1 .3-.3.6-.5 1-.6.3-.1.8-.3 1.6-.3.9 0 1.2-.1 3.5-.1s2.6 0 3.5.1c.8 0 1.3.2 1.6.3.4.1.7.4 1 .6.3.3.5.6.7 1 .1.3.3.8.3 1.6 0 .9.1 1.2.1 3.5-.1 2.3-.1 2.6-.1 3.5zm-7.1-8c-2.5 0-4.5 2-4.5 4.5s2 4.5 4.5 4.5 4.5-2 4.5-4.5-2-4.5-4.5-4.5zm0 7.4c-1.6 0-2.9-1.3-2.9-2.9 0-1.6 1.3-2.9 2.9-2.9 1.6 0 2.9 1.3 2.9 2.9 0 1.6-1.3 2.9-2.9 2.9zm4.8-6.4c.6 0 1-.5 1-1 0-.6-.5-1-1-1-.6 0-1 .5-1 1-.1.6.4 1 1 1z"/></svg><svg fill="none" viewBox="0 0 12 7" id="selector-arrow" xmlns="http://www.w3.org/2000/svg"><path d="M11.207.543a1 1 0 01.083 1.32l-.083.094-4.5 4.5a1 1 0 01-1.32.083l-.094-.083-4.5-4.5A1 1 0 012.113.46l.094.083L6 4.335 9.793.543a1 1 0 011.32-.083l.094.083z" fill="#343434"/></svg><svg version="1.1" id="vk" x="0" y="0" viewBox="0 0 22.2 12.6" xml:space="preserve" xmlns="http://www.w3.org/2000/svg"><style>.fst0{fill-rule:evenodd;clip-rule:evenodd;fill:#a6a8a8}</style><path class="fst0" d="M19.7 8.7c1.8 1.6 2.2 2.4 2.2 2.5.7 1.2-.8 1.3-.8 1.3h-3s-.6.1-1.5-.5c-1.1-.8-2.6-2.7-3.5-2.5-.8.3-.6 2.3-.6 2.3s0 .3-.2.5-.6.1-.6.1H11s-3.2 0-5.8-2.7C2.4 7 .1 1.6.1 1.6s-.1-.3 0-.5C.3.9.8.9.8.9H4s.3 0 .5.2c.2.1.3.4.3.4s.4 1 1.1 2.2C7.2 6 7.8 6.5 8.3 6.2c.7-.4.5-3.2.5-3.2s0-1-.3-1.5C8 1 7.5.9 7.3.9c-.2 0 .1-.4.5-.6.6-.3 1.6-.3 2.8-.3h1.3c1.1.3.7 1.3.7 3.7 0 .8-.1 1.9.4 2.2.2.2 1.1.2 2.6-2.3.7-1.2 1.3-2.3 1.3-2.3s.1-.2.3-.3c.2-.1.4-.1.4-.1h3.3s1-.1 1.2.3c.2.5-.4 1.3-1.8 3.1-2.2 3-2.4 2.7-.6 4.4z"/></svg></svg>