<svg width="18" height="18" viewBox="0 0 18 18" fill="none" xmlns="http://www.w3.org/2000/svg">
<path fill-rule="evenodd" clip-rule="evenodd" d="M17.6573 5.35468C17.6149 4.43101 17.4677 3.80021 17.2524 3.24835C17.0338 2.66933 16.691 2.14487 16.248 1.71137C15.8131 1.26991 15.2866 0.928173 14.7055 0.710235C14.1516 0.495863 13.5186 0.349293 12.5917 0.307318C11.663 0.264949 11.3663 0.254883 9.00131 0.254883C6.63636 0.254883 6.33965 0.264949 5.41094 0.30705C4.48398 0.349293 3.85104 0.495997 3.29711 0.710495C2.71603 0.928307 2.18965 1.26991 1.75462 1.71137C1.31161 2.14473 0.968657 2.6692 0.749919 3.24821C0.534823 3.80021 0.387731 4.43101 0.345615 5.35455C0.303102 6.28008 0.292969 6.57561 0.292969 8.93218C0.292969 11.2889 0.303102 11.5846 0.345615 12.51C0.387811 13.4335 0.535061 14.0643 0.750315 14.6163C0.968895 15.1952 1.31177 15.7198 1.75478 16.1531C2.18965 16.5946 2.71618 16.9362 3.29719 17.154C3.85104 17.3686 4.48414 17.5152 5.4111 17.5575C6.33988 17.5997 6.63644 17.6096 9.00147 17.6096C11.3664 17.6096 11.6631 17.5997 12.5918 17.5575C13.5188 17.5152 14.1517 17.3686 14.7057 17.154C15.8754 16.7033 16.8001 15.7819 17.2524 14.6163C17.4678 14.0643 17.6149 13.4335 17.6573 12.51C17.6995 11.5844 17.7097 11.2889 17.7097 8.93232C17.7097 6.5756 17.6995 6.28008 17.6573 5.35468ZM16.0897 12.4431C16.051 13.2891 15.9091 13.7486 15.7899 14.0543C15.4969 14.8111 14.8968 15.4092 14.1372 15.7011C13.8304 15.8199 13.3693 15.9613 12.5202 15.9998C11.6022 16.0417 11.3267 16.0504 9.0013 16.0504C6.67578 16.0504 6.40044 16.0417 5.48226 15.9998C4.63328 15.9613 4.17221 15.8199 3.86528 15.7011C3.4871 15.562 3.14494 15.3402 2.86406 15.052C2.57479 14.7721 2.35217 14.4313 2.21252 14.0543C2.09337 13.7486 1.95143 13.2891 1.91279 12.4431C1.87091 11.5282 1.86197 11.2537 1.86197 8.93678C1.86197 6.61971 1.87091 6.34537 1.91279 5.43034C1.95159 4.58428 2.09337 4.12484 2.21252 3.81912C2.35217 3.44217 2.57486 3.10123 2.86406 2.82133C3.14494 2.53308 3.4871 2.31131 3.86544 2.17228C4.17221 2.05339 4.63328 1.91211 5.48242 1.87345C6.4006 1.83174 6.6761 1.82288 9.0013 1.82288C11.3264 1.82288 11.6019 1.83174 12.5202 1.87358C13.3693 1.91211 13.8302 2.05352 14.1372 2.17228C14.5153 2.31144 14.8575 2.53321 15.1385 2.82133C15.4277 3.10123 15.6503 3.44217 15.7898 3.81912C15.9091 4.12484 16.051 4.58428 16.0897 5.43034C16.1316 6.34525 16.1405 6.61971 16.1405 8.93664C16.1405 11.2537 16.1317 11.528 16.0897 12.4431ZM9.00132 4.4762C6.53164 4.4762 4.52951 6.4713 4.52951 8.93219C4.52951 11.3931 6.53164 13.3881 9.00132 13.3881C11.4712 13.3881 13.4732 11.3931 13.4732 8.93219C13.4732 6.4713 11.4712 4.4762 9.00132 4.4762ZM9.00132 11.8289C7.39827 11.8287 6.09858 10.5339 6.09866 8.93646C6.09866 7.33919 7.39827 6.04419 9.00147 6.04419C10.6046 6.04432 11.9042 7.33919 11.9042 8.93646C11.9042 10.5339 10.6045 11.8289 9.00132 11.8289ZM13.7516 5.4928C14.3286 5.4928 14.7965 5.02659 14.7965 4.45155C14.7965 3.87637 14.3286 3.41016 13.7516 3.41016C13.1744 3.41016 12.7065 3.87637 12.7065 4.45155C12.7065 5.02659 13.1744 5.4928 13.7516 5.4928Z" fill="#A6A8A8"/>
</svg>
