<?xml version="1.0" encoding="utf-8"?>
<!-- Generator: Adobe Illustrator 24.0.0, SVG Export Plug-In . SVG Version: 6.00 Build 0)  -->
<svg version="1.1" id="Слой_1" xmlns="http://www.w3.org/2000/svg" xmlns:xlink="http://www.w3.org/1999/xlink" x="0px" y="0px"
	 viewBox="0 0 17.4 17.4" style="enable-background:new 0 0 17.4 17.4;" xml:space="preserve">
<style type="text/css">
	.st0{fill-rule:evenodd;clip-rule:evenodd;fill:#A6A8A8;}
</style>
<path class="st0" d="M17.4,5.1c0-0.9-0.2-1.6-0.4-2.1c-0.2-0.6-0.6-1.1-1-1.5c-0.4-0.4-1-0.8-1.5-1c-0.6-0.2-1.2-0.4-2.1-0.4
	C11.4,0,11.1,0,8.7,0C6.3,0,6,0,5.1,0.1C4.2,0.1,3.6,0.2,3,0.5C2.4,0.7,1.9,1,1.5,1.5C1,1.9,0.7,2.4,0.5,3C0.2,3.5,0.1,4.2,0.1,5.1
	C0,6,0,6.3,0,8.7c0,2.4,0,2.7,0.1,3.6c0,0.9,0.2,1.6,0.4,2.1c0.2,0.6,0.6,1.1,1,1.5c0.4,0.4,1,0.8,1.5,1c0.6,0.2,1.2,0.4,2.1,0.4
	c0.9,0,1.2,0.1,3.6,0.1c2.4,0,2.7,0,3.6-0.1c0.9,0,1.6-0.2,2.1-0.4c1.2-0.5,2.1-1.4,2.5-2.5c0.2-0.6,0.4-1.2,0.4-2.1
	c0-0.9,0.1-1.2,0.1-3.6C17.4,6.3,17.4,6,17.4,5.1z M15.8,12.2c0,0.8-0.2,1.3-0.3,1.6c-0.3,0.8-0.9,1.4-1.7,1.6
	c-0.3,0.1-0.8,0.3-1.6,0.3c-0.9,0-1.2,0.1-3.5,0.1c-2.3,0-2.6,0-3.5-0.1c-0.8,0-1.3-0.2-1.6-0.3c-0.4-0.1-0.7-0.4-1-0.6
	c-0.3-0.3-0.5-0.6-0.7-1c-0.1-0.3-0.3-0.8-0.3-1.6c0-0.9-0.1-1.2-0.1-3.5c0-2.3,0-2.6,0.1-3.5c0-0.8,0.2-1.3,0.3-1.6
	c0.1-0.4,0.4-0.7,0.7-1c0.3-0.3,0.6-0.5,1-0.6c0.3-0.1,0.8-0.3,1.6-0.3c0.9,0,1.2-0.1,3.5-0.1c2.3,0,2.6,0,3.5,0.1
	c0.8,0,1.3,0.2,1.6,0.3c0.4,0.1,0.7,0.4,1,0.6c0.3,0.3,0.5,0.6,0.7,1c0.1,0.3,0.3,0.8,0.3,1.6c0,0.9,0.1,1.2,0.1,3.5
	C15.8,11,15.8,11.3,15.8,12.2z M8.7,4.2c-2.5,0-4.5,2-4.5,4.5c0,2.5,2,4.5,4.5,4.5c2.5,0,4.5-2,4.5-4.5C13.2,6.2,11.2,4.2,8.7,4.2z
	 M8.7,11.6c-1.6,0-2.9-1.3-2.9-2.9c0-1.6,1.3-2.9,2.9-2.9c1.6,0,2.9,1.3,2.9,2.9C11.6,10.3,10.3,11.6,8.7,11.6z M13.5,5.2
	c0.6,0,1-0.5,1-1c0-0.6-0.5-1-1-1c-0.6,0-1,0.5-1,1C12.4,4.8,12.9,5.2,13.5,5.2z"/>
</svg>
