<svg width="24" height="14" viewBox="0 0 24 14" fill="none" xmlns="http://www.w3.org/2000/svg">
<path fill-rule="evenodd" clip-rule="evenodd" d="M20.6416 9.33702C22.4247 10.977 22.7961 11.7789 22.8564 11.8774C23.5923 13.0934 22.04 13.1888 22.04 13.1888L19.066 13.2315C19.066 13.2315 18.4236 13.3564 17.5839 12.7812C16.4699 12.0253 14.9477 10.0535 14.1314 10.3098C13.3017 10.5694 13.566 12.6366 13.566 12.6366C13.566 12.6366 13.5727 12.8897 13.3854 13.0934C13.1779 13.3071 12.7765 13.2249 12.7765 13.2249H11.92C11.92 13.2249 8.74518 13.238 6.15581 10.5629C3.33561 7.64778 0.977079 2.19555 0.977079 2.19555C0.977079 2.19555 0.833197 1.85047 0.987155 1.66643C1.16439 1.45938 1.64278 1.46267 1.64278 1.46267H4.8243C4.8243 1.46267 5.12214 1.50211 5.33625 1.65986C5.51681 1.78803 5.61384 2.03123 5.61384 2.03123C5.61384 2.03123 5.99863 3.04675 6.68106 4.21672C8.00925 6.49752 8.6281 6.99706 9.07979 6.75058C9.73542 6.39235 9.53804 3.52656 9.53804 3.52656C9.53804 3.52656 9.55144 2.48476 9.20685 2.02137C8.93924 1.65986 8.44079 1.55469 8.22003 1.52511C8.03937 1.5054 8.33369 1.0913 8.71515 0.907259C9.28715 0.631201 10.3009 0.611474 11.4952 0.624622C12.4252 0.634486 12.7765 0.621338 12.7765 0.621338C13.8738 0.884258 13.5024 1.90305 13.5024 4.33504C13.5024 5.11721 13.3586 6.21489 13.9273 6.5764C14.1716 6.73744 15.0481 6.76044 16.5368 4.2463C17.246 3.05332 17.8047 1.93263 17.8047 1.93263C17.8047 1.93263 17.9251 1.67958 18.1024 1.57441C18.2897 1.46267 18.5374 1.46267 18.5374 1.46267L21.8862 1.4791C21.8862 1.4791 22.8931 1.35422 23.0538 1.80775C23.2243 2.281 22.6423 3.10918 21.2773 4.92002C19.0291 7.89427 18.7782 7.6182 20.6416 9.33702Z" fill="#A6A8A8"/>
</svg>
