<?xml version="1.0" encoding="utf-8"?>
<!-- Generator: Adobe Illustrator 24.0.0, SVG Export Plug-In . SVG Version: 6.00 Build 0)  -->
<svg version="1.1" id="Слой_1" xmlns="http://www.w3.org/2000/svg" xmlns:xlink="http://www.w3.org/1999/xlink" x="0px" y="0px"
	 viewBox="0 0 22.2 12.6" style="enable-background:new 0 0 22.2 12.6;" xml:space="preserve">
<style type="text/css">
	.st0{fill-rule:evenodd;clip-rule:evenodd;fill:#A6A8A8;}
</style>
<path class="st0" d="M19.7,8.7c1.8,1.6,2.2,2.4,2.2,2.5c0.7,1.2-0.8,1.3-0.8,1.3l-3,0c0,0-0.6,0.1-1.5-0.5c-1.1-0.8-2.6-2.7-3.5-2.5
	c-0.8,0.3-0.6,2.3-0.6,2.3s0,0.3-0.2,0.5c-0.2,0.2-0.6,0.1-0.6,0.1H11c0,0-3.2,0-5.8-2.7C2.4,7,0.1,1.6,0.1,1.6s-0.1-0.3,0-0.5
	c0.2-0.2,0.7-0.2,0.7-0.2h3.2c0,0,0.3,0,0.5,0.2c0.2,0.1,0.3,0.4,0.3,0.4s0.4,1,1.1,2.2c1.3,2.3,1.9,2.8,2.4,2.5
	c0.7-0.4,0.5-3.2,0.5-3.2s0-1-0.3-1.5C8,1,7.5,0.9,7.3,0.9c-0.2,0,0.1-0.4,0.5-0.6C8.4,0,9.4,0,10.6,0c0.9,0,1.3,0,1.3,0
	c1.1,0.3,0.7,1.3,0.7,3.7c0,0.8-0.1,1.9,0.4,2.2c0.2,0.2,1.1,0.2,2.6-2.3c0.7-1.2,1.3-2.3,1.3-2.3S17,1.1,17.2,1
	c0.2-0.1,0.4-0.1,0.4-0.1l3.3,0c0,0,1-0.1,1.2,0.3c0.2,0.5-0.4,1.3-1.8,3.1C18.1,7.3,17.9,7,19.7,8.7z"/>
</svg>
